<svg width="17" height="17" viewBox="0 0 17 17" fill="none" xmlns="http://www.w3.org/2000/svg">
<path d="M8.78615 11.4537C7.15439 11.4537 5.80505 10.1044 5.80505 8.47262C5.80505 6.84086 7.15439 5.49152 8.78615 5.49152C10.4179 5.49152 11.7673 6.84086 11.7673 8.47262C11.7673 10.1044 10.4179 11.4537 8.78615 11.4537ZM8.78615 6.11912C7.49957 6.11912 6.43265 7.18604 6.43265 8.47262C6.43265 9.7592 7.49957 10.8261 8.78615 10.8261C10.0727 10.8261 11.1397 9.7592 11.1397 8.47262C11.1397 7.18604 10.0727 6.11912 8.78615 6.11912Z" fill="#4E5BE7"/>
<path d="M8.78608 9.00619C8.50366 9.00619 8.25262 8.75515 8.25262 8.47273C8.25262 8.19031 8.50366 7.93927 8.78608 7.93927C9.0685 7.93927 9.31954 8.19031 9.31954 8.47273C9.31954 8.75515 9.0685 9.00619 8.78608 9.00619ZM8.78608 8.37859C8.72332 8.37859 8.69194 8.40997 8.69194 8.47273C8.69194 8.53549 8.72332 8.56687 8.78608 8.56687C8.84884 8.56687 8.88022 8.53549 8.88022 8.47273C8.88022 8.40997 8.84884 8.37859 8.78608 8.37859Z" fill="black"/>
<path d="M8.78617 10.3554C8.28409 10.3554 7.81339 10.1671 7.43683 9.79052L7.87615 9.3512C8.12719 9.60224 8.44099 9.72776 8.75479 9.72776C9.06859 9.72776 9.38239 9.60224 9.63343 9.38258L10.0727 9.8219C9.72757 10.1671 9.28825 10.3554 8.78617 10.3554Z" fill="black"/>
<path d="M7.90752 7.59388L7.4682 7.15456C7.81338 6.778 8.28408 6.58972 8.81754 6.58972C9.31962 6.58972 9.75894 6.778 10.1355 7.12318L9.69618 7.5625C9.41376 7.34284 9.09996 7.21732 8.78616 7.21732C8.44098 7.21732 8.12718 7.37422 7.90752 7.59388Z" fill="black"/>
<path d="M12.5518 13.4933H5.02057V14.1209H12.5518V13.4933Z" fill="black"/>
<path d="M14.4345 12.552H13.8069V3.45176H3.76533V12.552H3.13773V2.82416H14.4345V12.552Z" fill="black"/>
<path d="M13.807 2.19653H13.1794V1.88273H4.39298V2.19653H3.76538V1.25513H13.807V2.19653Z" fill="black"/>
<path d="M13.1794 0.9414H12.5518V0.6276H5.02061V0.9414H4.39301V0H13.1794V0.9414Z" fill="black"/>
<path d="M16.5751 10.4882L14.3795 7.35205L13.8654 7.71198L16.061 10.8482L16.5751 10.4882Z" fill="black"/>
<path d="M3.70752 7.71216L3.19327 7.35236L0.99847 10.4893L1.51272 10.8491L3.70752 7.71216Z" fill="black"/>
<path d="M16.6312 10.8574V15.5017C16.6312 15.7841 16.4115 16.0037 16.1291 16.0037H1.44327C1.16085 16.0037 0.941193 15.7841 0.941193 15.5017V10.8574C0.941193 10.575 1.16085 10.3553 1.44327 10.3553C2.22777 10.3553 3.73401 10.3553 4.51851 10.3553C4.80093 10.3553 5.02059 10.575 5.02059 10.8574V12.3637C5.02059 12.6461 5.24025 12.8657 5.52267 12.8657H12.0497C12.3321 12.8657 12.5518 12.6461 12.5518 12.3637V10.8574C12.5518 10.575 12.7715 10.3553 13.0539 10.3553H16.1291C16.4115 10.3553 16.6312 10.575 16.6312 10.8574Z" fill="#4E5BE7"/>
</svg>
