<svg width="21" height="21" viewBox="0 0 21 21" fill="none" xmlns="http://www.w3.org/2000/svg">
<path d="M20.4031 0.526447C20.0569 0.186924 19.6061 0 19.1333 0C18.6061 0 18.1009 0.236592 17.7428 0.655383L9.09843 11.1797L6.24851 8.90942C5.82854 8.52689 5.2922 8.31594 4.73854 8.31594C4.05554 8.31594 3.41118 8.6318 2.9703 9.18231C2.15755 10.1985 2.26836 11.7357 3.22979 12.6198L7.79235 16.4864C8.124 16.792 8.54909 16.96 8.98916 16.96C9.52389 16.96 10.0295 16.7139 10.38 16.2802L20.5525 3.24271C21.2028 2.43865 21.137 1.24535 20.4031 0.526447Z" fill="#39813F"/>
<path d="M18.9791 10.0952C18.7559 10.0952 18.5752 10.2759 18.5752 10.4991V17.3638C18.5752 18.477 17.6694 19.3829 16.5562 19.3829H2.82667C1.71345 19.3829 0.80762 18.477 0.80762 17.3638V3.63429C0.80762 2.52106 1.71345 1.61524 2.82667 1.61524H16.1524C16.3756 1.61524 16.5562 1.43461 16.5562 1.21143C16.5562 0.988241 16.3756 0.807617 16.1524 0.807617H2.82667C1.2682 0.807617 0 2.07582 0 3.63429V17.3638C0 18.9223 1.2682 20.1905 2.82667 20.1905H16.5562C18.1147 20.1905 19.3829 18.9223 19.3829 17.3638V10.4991C19.3829 10.2759 19.2022 10.0952 18.9791 10.0952Z" fill="#39813F"/>
</svg>
