<svg width="20" height="20" viewBox="0 0 20 20" fill="none" xmlns="http://www.w3.org/2000/svg">
<path fill-rule="evenodd" clip-rule="evenodd" d="M9.50423 0H10.4958C11.1971 0 11.7533 0.556227 11.7533 1.25756V8.24667H18.7424C19.4196 8.24667 20 8.8029 20 9.50423V10.4958C20 11.1971 19.4196 11.7533 18.7424 11.7533H11.7533V18.7424C11.7533 19.4196 11.1971 20 10.4958 20H9.50423C8.8029 20 8.24667 19.4196 8.24667 18.7424V11.7533H1.25756C0.556227 11.7533 0 11.1971 0 10.4958V9.50423C0 8.8029 0.556227 8.24667 1.25756 8.24667H8.24667V1.25756C8.24667 0.556227 8.8029 0 9.50423 0Z" fill="black"/>
</svg>
